<svg width="512" height="512" viewBox="0 0 512 512" fill="none" xmlns="http://www.w3.org/2000/svg">
<rect width="512" height="512" rx="48" fill="white"/>
<line x1="175.254" y1="47.8174" x2="175.254" y2="165.806" stroke="#1622B0"/>
<line x1="219.078" y1="2.86963" x2="219.078" y2="124.229" stroke="#1622B0"/>
<path d="M301.734 123.668L219.142 123.668" stroke="#1622B0" stroke-linecap="round"/>
<line x1="258.533" y1="165.183" x2="175.256" y2="165.183" stroke="#1622B0" stroke-linecap="square"/>
<line x1="301.723" y1="123.813" x2="258.995" y2="165.244" stroke="#1622B0" stroke-linecap="round"/>
<line x1="218.936" y1="3.21868" x2="175.112" y2="48.1667" stroke="#1622B0"/>
<rect x="175.254" y="48.3174" width="43.948" height="116.989" fill="#1622B0" stroke="#1622B0"/>
<rect x="175.254" y="165.306" width="41.7006" height="83.2776" transform="rotate(-90 175.254 165.306)" fill="#1622B0" stroke="#1622B0"/>
<path d="M255.661 123.668H301.733L280.383 144.457L258.47 165.245L253.976 143.895L255.661 123.668Z" fill="#1622B0" stroke="#1622B0"/>
<path d="M219.143 3.43237V49.5041L197.231 52.3134L175.318 47.8186L219.143 3.43237Z" fill="#1622B0"/>
<path d="M219.143 49.5041V3.43237L175.318 47.8186M219.143 49.5041C202.028 49.7235 192.433 47.5992 175.318 47.8186M219.143 49.5041L197.231 52.3134L175.318 47.8186" stroke="#1622B0"/>
<line x1="334.945" y1="464.71" x2="334.945" y2="346.721" stroke="#1622B0"/>
<line x1="291.121" y1="509.658" x2="291.121" y2="388.298" stroke="#1622B0"/>
<path d="M208.465 388.859H291.057" stroke="#1622B0" stroke-linecap="round"/>
<line x1="251.666" y1="347.344" x2="334.944" y2="347.344" stroke="#1622B0" stroke-linecap="square"/>
<line x1="208.476" y1="388.715" x2="251.204" y2="347.284" stroke="#1622B0" stroke-linecap="round"/>
<line x1="291.263" y1="509.309" x2="335.087" y2="464.361" stroke="#1622B0"/>
<rect x="334.945" y="464.21" width="43.948" height="116.989" transform="rotate(-180 334.945 464.21)" fill="#1622B0" stroke="#1622B0"/>
<rect x="334.945" y="347.221" width="41.7006" height="83.2776" transform="rotate(90 334.945 347.221)" fill="#1622B0" stroke="#1622B0"/>
<path d="M254.538 388.859H208.466L229.817 368.071L251.729 347.282L256.224 368.633L254.538 388.859Z" fill="#1622B0" stroke="#1622B0"/>
<path d="M291.057 509.095V463.023L312.969 460.214L334.881 464.709L291.057 509.095Z" fill="#1622B0"/>
<path d="M291.057 463.023V509.095L334.881 464.709M291.057 463.023C308.171 462.804 317.766 464.928 334.881 464.709M291.057 463.023L312.969 460.214L334.881 464.709" stroke="#1622B0"/>
<line y1="-0.5" x2="117.989" y2="-0.5" transform="matrix(-1 0 0 1 459.053 334.36)" stroke="#1622B0"/>
<line y1="-0.5" x2="121.36" y2="-0.5" transform="matrix(-1 0 0 1 504.001 290.535)" stroke="#1622B0"/>
<path d="M383.204 207.382V289.974" stroke="#1622B0" stroke-linecap="round"/>
<line x1="0.5" y1="-0.5" x2="83.7776" y2="-0.5" transform="matrix(0 1 1 0 342.189 250.082)" stroke="#1622B0" stroke-linecap="square"/>
<line x1="0.5" y1="-0.5" x2="60.0168" y2="-0.5" transform="matrix(-0.696123 0.717923 0.717923 0.696123 383.765 207.382)" stroke="#1622B0" stroke-linecap="round"/>
<line y1="-0.5" x2="62.7766" y2="-0.5" transform="matrix(-0.716 0.6981 0.6981 0.716 504.001 290.535)" stroke="#1622B0"/>
<rect x="-0.5" y="-0.5" width="43.948" height="116.989" transform="matrix(0 -1 -1 0 458.053 333.36)" fill="#1622B0" stroke="#1622B0"/>
<rect x="0.5" y="-0.5" width="41.7006" height="83.2776" transform="matrix(1 0 0 -1 341.063 333.36)" fill="#1622B0" stroke="#1622B0"/>
<path d="M383.204 253.454V207.382L362.416 228.732L341.627 250.645L362.977 255.139L383.204 253.454Z" fill="#1622B0" stroke="#1622B0"/>
<path d="M503.439 289.974H457.368L454.558 311.886L459.053 333.798L503.439 289.974Z" fill="#1622B0"/>
<path d="M457.368 289.974H503.439L459.053 333.798M457.368 289.974C457.148 307.088 459.273 316.683 459.053 333.798M457.368 289.974L454.558 311.886L459.053 333.798" stroke="#1622B0"/>
<line y1="-0.5" x2="117.989" y2="-0.5" transform="matrix(-1 0 0 1 437.701 197.269)" stroke="#1622B0"/>
<line y1="-0.5" x2="121.36" y2="-0.5" transform="matrix(-1 0 0 1 482.65 153.445)" stroke="#1622B0"/>
<path d="M361.853 70.2915V152.884" stroke="#1622B0" stroke-linecap="round"/>
<line x1="0.5" y1="-0.5" x2="83.7776" y2="-0.5" transform="matrix(0 1 1 0 320.837 112.992)" stroke="#1622B0" stroke-linecap="square"/>
<line x1="0.5" y1="-0.5" x2="60.0168" y2="-0.5" transform="matrix(-0.696123 0.717923 0.717923 0.696123 362.414 70.2915)" stroke="#1622B0" stroke-linecap="round"/>
<line y1="-0.5" x2="62.7766" y2="-0.5" transform="matrix(-0.716 0.6981 0.6981 0.716 482.65 153.445)" stroke="#1622B0"/>
<rect x="-0.5" y="-0.5" width="43.948" height="116.989" transform="matrix(0 -1 -1 0 436.701 196.269)" fill="#1622B0" stroke="#1622B0"/>
<rect x="0.5" y="-0.5" width="41.7006" height="83.2776" transform="matrix(1 0 0 -1 319.713 196.269)" fill="#1622B0" stroke="#1622B0"/>
<path d="M361.853 116.363V70.2908L341.064 91.6411L320.276 113.553L341.626 118.048L361.853 116.363Z" fill="#1622B0" stroke="#1622B0"/>
<path d="M482.089 152.882H436.017L433.208 174.795L437.703 196.707L482.089 152.882Z" fill="#1622B0"/>
<path d="M436.017 152.882H482.089L437.703 196.707M436.017 152.882C435.798 169.997 437.922 179.592 437.703 196.707M436.017 152.882L433.208 174.795L437.703 196.707" stroke="#1622B0"/>
<line y1="-0.5" x2="117.989" y2="-0.5" transform="matrix(1 0 0 -1 53.3965 171.425)" stroke="#1622B0"/>
<line y1="-0.5" x2="121.36" y2="-0.5" transform="matrix(1 0 0 -1 8.44824 215.249)" stroke="#1622B0"/>
<path d="M129.246 298.402V215.81" stroke="#1622B0" stroke-linecap="round"/>
<line x1="0.5" y1="-0.5" x2="83.7776" y2="-0.5" transform="matrix(0 -1 -1 0 170.262 255.702)" stroke="#1622B0" stroke-linecap="square"/>
<line x1="0.5" y1="-0.5" x2="60.0168" y2="-0.5" transform="matrix(0.696123 -0.717923 -0.717923 -0.696123 128.685 298.402)" stroke="#1622B0" stroke-linecap="round"/>
<line y1="-0.5" x2="62.7766" y2="-0.5" transform="matrix(0.716 -0.6981 -0.6981 -0.716 8.44824 215.249)" stroke="#1622B0"/>
<rect x="0.5" y="0.5" width="43.948" height="116.989" transform="matrix(0 1 1 0 53.3965 171.425)" fill="#1622B0" stroke="#1622B0"/>
<rect x="-0.5" y="0.5" width="41.7006" height="83.2776" transform="matrix(-1 0 0 1 170.386 171.425)" fill="#1622B0" stroke="#1622B0"/>
<path d="M129.246 252.331L129.246 298.403L150.035 277.052L170.823 255.14L149.473 250.646L129.246 252.331Z" fill="#1622B0" stroke="#1622B0"/>
<path d="M9.00977 215.812H55.0815L57.8908 193.899L53.396 171.987L9.00977 215.812Z" fill="#1622B0"/>
<path d="M55.0815 215.812H9.00977L53.396 171.987M55.0815 215.812C55.3009 198.697 53.1765 189.102 53.396 171.987M55.0815 215.812L57.8908 193.899L53.396 171.987" stroke="#1622B0"/>
<line y1="-0.5" x2="117.989" y2="-0.5" transform="matrix(1 0 0 -1 75.8701 306.269)" stroke="#1622B0"/>
<line y1="-0.5" x2="121.36" y2="-0.5" transform="matrix(1 0 0 -1 30.9219 350.093)" stroke="#1622B0"/>
<path d="M151.72 433.247V350.655" stroke="#1622B0" stroke-linecap="round"/>
<line x1="0.5" y1="-0.5" x2="83.7776" y2="-0.5" transform="matrix(0 -1 -1 0 192.735 390.546)" stroke="#1622B0" stroke-linecap="square"/>
<line x1="0.5" y1="-0.5" x2="60.0168" y2="-0.5" transform="matrix(0.696123 -0.717923 -0.717923 -0.696123 151.158 433.247)" stroke="#1622B0" stroke-linecap="round"/>
<line y1="-0.5" x2="62.7766" y2="-0.5" transform="matrix(0.716 -0.6981 -0.6981 -0.716 30.9219 350.093)" stroke="#1622B0"/>
<rect x="0.5" y="0.5" width="43.948" height="116.989" transform="matrix(0 1 1 0 75.8701 306.269)" fill="#1622B0" stroke="#1622B0"/>
<rect x="-0.5" y="0.5" width="41.7006" height="83.2776" transform="matrix(-1 0 0 1 192.859 306.269)" fill="#1622B0" stroke="#1622B0"/>
<path d="M151.72 387.175L151.72 433.247L172.508 411.897L193.297 389.985L171.946 385.49L151.72 387.175Z" fill="#1622B0" stroke="#1622B0"/>
<path d="M31.4834 350.656H77.5551L80.3644 328.744L75.8696 306.832L31.4834 350.656Z" fill="#1622B0"/>
<path d="M77.5551 350.656H31.4834L75.8696 306.832M77.5551 350.656C77.7746 333.541 75.6502 323.946 75.8696 306.832M77.5551 350.656L80.3644 328.744L75.8696 306.832" stroke="#1622B0"/>
<circle cx="257.348" cy="256.263" r="75.3498" fill="#FDED59" stroke="#FDED59"/>
</svg>
