<svg width="833" height="833" viewBox="0 0 833 833" fill="none" xmlns="http://www.w3.org/2000/svg">
<line x1="344.74" y1="151.546" x2="344.74" y2="256.925" stroke="#1622B0"/>
<line x1="383.881" y1="111.401" x2="383.881" y2="219.792" stroke="#1622B0"/>
<path d="M457.648 219.291H383.883" stroke="#1622B0" stroke-linecap="round"/>
<line x1="419.011" y1="256.422" x2="344.74" y2="256.422" stroke="#1622B0" stroke-linecap="square"/>
<line x1="457.638" y1="219.495" x2="419.552" y2="256.424" stroke="#1622B0" stroke-linecap="round"/>
<line x1="383.739" y1="111.75" x2="344.598" y2="151.895" stroke="#1622B0"/>
<rect x="344.74" y="152.046" width="39.1446" height="104.38" fill="#1622B0" stroke="#1622B0"/>
<rect x="344.74" y="256.425" width="37.1373" height="74.2711" transform="rotate(-90 344.74 256.425)" fill="#1622B0" stroke="#1622B0"/>
<path d="M416.501 219.291H457.649L438.58 237.857L419.01 256.424L414.995 237.356L416.501 219.291Z" fill="#1622B0" stroke="#1622B0"/>
<path d="M383.884 111.904V153.052L364.313 155.561L344.743 151.547L383.884 111.904Z" fill="#1622B0"/>
<path d="M383.884 153.052V111.904L344.743 151.547M383.884 153.052C368.598 153.248 360.028 151.351 344.743 151.547M383.884 153.052L364.313 155.561L344.743 151.547" stroke="#1622B0"/>
<line x1="487.257" y1="523.887" x2="487.257" y2="418.507" stroke="#1622B0"/>
<line x1="448.116" y1="564.031" x2="448.116" y2="455.641" stroke="#1622B0"/>
<path d="M374.349 456.142H448.114" stroke="#1622B0" stroke-linecap="round"/>
<line x1="412.986" y1="419.01" x2="487.257" y2="419.01" stroke="#1622B0" stroke-linecap="square"/>
<line x1="374.36" y1="455.938" x2="412.445" y2="419.008" stroke="#1622B0" stroke-linecap="round"/>
<line x1="448.258" y1="563.682" x2="487.399" y2="523.538" stroke="#1622B0"/>
<rect x="487.257" y="523.387" width="39.1446" height="104.38" transform="rotate(-180 487.257 523.387)" fill="#1622B0" stroke="#1622B0"/>
<rect x="487.257" y="419.007" width="37.1373" height="74.2711" transform="rotate(90 487.257 419.007)" fill="#1622B0" stroke="#1622B0"/>
<path d="M415.497 456.142H374.348L393.417 437.575L412.987 419.008L417.002 438.077L415.497 456.142Z" fill="#1622B0" stroke="#1622B0"/>
<path d="M448.113 563.529V522.381L467.684 519.872L487.254 523.886L448.113 563.529Z" fill="#1622B0"/>
<path d="M448.113 522.381V563.529L487.254 523.886M448.113 522.381C463.399 522.185 471.969 524.082 487.254 523.886M448.113 522.381L467.684 519.872L487.254 523.886" stroke="#1622B0"/>
<line y1="-0.5" x2="105.38" y2="-0.5" transform="matrix(-1 0 0 1 598.154 407.467)" stroke="#1622B0"/>
<line y1="-0.5" x2="108.39" y2="-0.5" transform="matrix(-1 0 0 1 638.299 368.326)" stroke="#1622B0"/>
<path d="M530.411 294.059V367.825" stroke="#1622B0" stroke-linecap="round"/>
<line x1="0.5" y1="-0.5" x2="74.7711" y2="-0.5" transform="matrix(0 1 1 0 493.779 332.196)" stroke="#1622B0" stroke-linecap="square"/>
<line x1="0.5" y1="-0.5" x2="53.5496" y2="-0.5" transform="matrix(-0.696123 0.717923 0.717923 0.696123 530.912 294.059)" stroke="#1622B0" stroke-linecap="round"/>
<line y1="-0.5" x2="56.0678" y2="-0.5" transform="matrix(-0.716 0.6981 0.6981 0.716 638.299 368.326)" stroke="#1622B0"/>
<rect x="-0.5" y="-0.5" width="39.1446" height="104.38" transform="matrix(0 -1 -1 0 597.154 406.467)" fill="#1622B0" stroke="#1622B0"/>
<rect x="0.5" y="-0.5" width="37.1373" height="74.2711" transform="matrix(1 0 0 -1 492.775 406.467)" fill="#1622B0" stroke="#1622B0"/>
<path d="M530.411 335.207V294.059L511.844 313.127L493.277 332.698L512.346 336.712L530.411 335.207Z" fill="#1622B0" stroke="#1622B0"/>
<path d="M637.796 367.824H596.648L594.139 387.394L598.154 406.965L637.796 367.824Z" fill="#1622B0"/>
<path d="M596.648 367.824H637.796L598.154 406.965M596.648 367.824C596.452 383.109 598.35 391.679 598.154 406.965M596.648 367.824L594.139 387.394L598.154 406.965" stroke="#1622B0"/>
<line y1="-0.5" x2="105.38" y2="-0.5" transform="matrix(-1 0 0 1 579.085 285.026)" stroke="#1622B0"/>
<line y1="-0.5" x2="108.39" y2="-0.5" transform="matrix(-1 0 0 1 619.229 245.886)" stroke="#1622B0"/>
<path d="M511.34 171.618V245.384" stroke="#1622B0" stroke-linecap="round"/>
<line x1="0.5" y1="-0.5" x2="74.7711" y2="-0.5" transform="matrix(0 1 1 0 474.708 209.755)" stroke="#1622B0" stroke-linecap="square"/>
<line x1="0.5" y1="-0.5" x2="53.5496" y2="-0.5" transform="matrix(-0.696123 0.717923 0.717923 0.696123 511.843 171.618)" stroke="#1622B0" stroke-linecap="round"/>
<line y1="-0.5" x2="56.0678" y2="-0.5" transform="matrix(-0.716 0.6981 0.6981 0.716 619.229 245.886)" stroke="#1622B0"/>
<rect x="-0.5" y="-0.5" width="39.1446" height="104.38" transform="matrix(0 -1 -1 0 578.085 284.026)" fill="#1622B0" stroke="#1622B0"/>
<rect x="0.5" y="-0.5" width="37.1373" height="74.2711" transform="matrix(1 0 0 -1 473.706 284.026)" fill="#1622B0" stroke="#1622B0"/>
<path d="M511.34 212.766V171.618L492.773 190.687L474.207 210.257L493.275 214.271L511.34 212.766Z" fill="#1622B0" stroke="#1622B0"/>
<path d="M618.727 245.383H577.579L575.07 264.953L579.084 284.524L618.727 245.383Z" fill="#1622B0"/>
<path d="M577.579 245.383H618.727L579.084 284.524M577.579 245.383C577.383 260.668 579.28 269.238 579.084 284.524M577.579 245.383L575.07 264.953L579.084 284.524" stroke="#1622B0"/>
<line y1="-0.5" x2="105.38" y2="-0.5" transform="matrix(1 0 0 -1 235.85 261.943)" stroke="#1622B0"/>
<line y1="-0.5" x2="108.39" y2="-0.5" transform="matrix(1 0 0 -1 195.705 301.084)" stroke="#1622B0"/>
<path d="M303.594 375.352V301.586" stroke="#1622B0" stroke-linecap="round"/>
<line x1="0.5" y1="-0.5" x2="74.7711" y2="-0.5" transform="matrix(0 -1 -1 0 340.226 337.214)" stroke="#1622B0" stroke-linecap="square"/>
<line x1="0.5" y1="-0.5" x2="53.5496" y2="-0.5" transform="matrix(0.696123 -0.717923 -0.717923 -0.696123 303.092 375.352)" stroke="#1622B0" stroke-linecap="round"/>
<line y1="-0.5" x2="56.0678" y2="-0.5" transform="matrix(0.716 -0.6981 -0.6981 -0.716 195.705 301.084)" stroke="#1622B0"/>
<rect x="0.5" y="0.5" width="39.1446" height="104.38" transform="matrix(0 1 1 0 235.85 261.943)" fill="#1622B0" stroke="#1622B0"/>
<rect x="-0.5" y="0.5" width="37.1373" height="74.2711" transform="matrix(-1 0 0 1 340.229 261.943)" fill="#1622B0" stroke="#1622B0"/>
<path d="M303.594 334.204V375.352L322.161 356.283L340.728 336.713L321.659 332.698L303.594 334.204Z" fill="#1622B0" stroke="#1622B0"/>
<path d="M196.208 301.587H237.356L239.865 282.016L235.85 262.446L196.208 301.587Z" fill="#1622B0"/>
<path d="M237.356 301.587H196.208L235.85 262.446M237.356 301.587C237.552 286.301 235.654 277.731 235.85 262.446M237.356 301.587L239.865 282.016L235.85 262.446" stroke="#1622B0"/>
<line y1="-0.5" x2="105.38" y2="-0.5" transform="matrix(1 0 0 -1 255.922 382.377)" stroke="#1622B0"/>
<line y1="-0.5" x2="108.39" y2="-0.5" transform="matrix(1 0 0 -1 215.777 421.518)" stroke="#1622B0"/>
<path d="M323.667 495.786V422.02" stroke="#1622B0" stroke-linecap="round"/>
<line x1="0.5" y1="-0.5" x2="74.7711" y2="-0.5" transform="matrix(0 -1 -1 0 360.298 457.648)" stroke="#1622B0" stroke-linecap="square"/>
<line x1="0.5" y1="-0.5" x2="53.5496" y2="-0.5" transform="matrix(0.696123 -0.717923 -0.717923 -0.696123 323.164 495.786)" stroke="#1622B0" stroke-linecap="round"/>
<line y1="-0.5" x2="56.0678" y2="-0.5" transform="matrix(0.716 -0.6981 -0.6981 -0.716 215.777 421.518)" stroke="#1622B0"/>
<rect x="0.5" y="0.5" width="39.1446" height="104.38" transform="matrix(0 1 1 0 255.922 382.377)" fill="#1622B0" stroke="#1622B0"/>
<rect x="-0.5" y="0.5" width="37.1373" height="74.2711" transform="matrix(-1 0 0 1 360.301 382.377)" fill="#1622B0" stroke="#1622B0"/>
<path d="M323.667 454.638V495.786L342.233 476.717L360.8 457.147L341.732 453.132L323.667 454.638Z" fill="#1622B0" stroke="#1622B0"/>
<path d="M216.28 422.021H257.428L259.937 402.45L255.923 382.88L216.28 422.021Z" fill="#1622B0"/>
<path d="M257.428 422.021H216.28L255.923 382.88M257.428 422.021C257.624 406.735 255.727 398.165 255.923 382.88M257.428 422.021L259.937 402.45L255.923 382.88" stroke="#1622B0"/>
<circle cx="418.006" cy="337.716" r="67.244" fill="#FDED59" stroke="#FDED59"/>
<path d="M159.8 577.755H180.932C185.698 577.755 189.331 578.12 191.831 578.849C195.19 579.839 198.068 581.597 200.464 584.123C202.859 586.649 204.682 589.748 205.932 593.419C207.182 597.065 207.807 601.57 207.807 606.935C207.807 611.649 207.221 615.711 206.05 619.123C204.617 623.289 202.573 626.662 199.917 629.24C197.912 631.193 195.203 632.716 191.792 633.81C189.24 634.617 185.828 635.021 181.557 635.021H159.8V577.755ZM171.362 587.443V625.373H179.995C183.224 625.373 185.555 625.19 186.987 624.826C188.862 624.357 190.412 623.563 191.636 622.443C192.886 621.323 193.901 619.487 194.682 616.935C195.464 614.357 195.854 610.854 195.854 606.427C195.854 602 195.464 598.602 194.682 596.232C193.901 593.862 192.807 592.013 191.401 590.685C189.995 589.357 188.211 588.458 186.05 587.99C184.435 587.625 181.271 587.443 176.557 587.443H171.362ZM225.264 635.021V577.755H267.725V587.443H236.826V600.138H265.576V609.787H236.826V625.373H268.818V635.021H225.264ZM299.126 635.021V587.443H282.134V577.755H327.642V587.443H310.689V635.021H299.126ZM342.793 635.021V577.755H367.129C373.249 577.755 377.689 578.276 380.45 579.318C383.236 580.333 385.463 582.156 387.129 584.787C388.796 587.417 389.629 590.425 389.629 593.81C389.629 598.107 388.366 601.662 385.84 604.474C383.314 607.261 379.538 609.018 374.512 609.748C377.012 611.206 379.069 612.807 380.684 614.552C382.325 616.297 384.525 619.396 387.286 623.849L394.278 635.021H380.45L372.09 622.56C369.121 618.107 367.09 615.307 365.996 614.162C364.903 612.99 363.744 612.195 362.52 611.779C361.296 611.336 359.356 611.115 356.7 611.115H354.356V635.021H342.793ZM354.356 601.974H362.911C368.457 601.974 371.921 601.74 373.301 601.271C374.681 600.802 375.762 599.995 376.543 598.849C377.325 597.703 377.715 596.271 377.715 594.552C377.715 592.625 377.194 591.076 376.153 589.904C375.137 588.706 373.692 587.951 371.817 587.638C370.879 587.508 368.067 587.443 363.379 587.443H354.356V601.974ZM459.82 635.021H447.242L442.242 622.013H419.351L414.625 635.021H402.359L424.664 577.755H436.89L459.82 635.021ZM438.531 612.365L430.64 591.115L422.906 612.365H438.531ZM473.721 635.021V577.755H484.971L508.409 615.998V577.755H519.151V635.021H507.55L484.464 597.677V635.021H473.721ZM536.295 619.748V608.771H557.857V619.748H536.295ZM567.54 616.388L578.79 615.294C579.467 619.07 580.834 621.844 582.892 623.615C584.975 625.386 587.775 626.271 591.29 626.271C595.014 626.271 597.814 625.49 599.689 623.927C601.59 622.339 602.54 620.49 602.54 618.38C602.54 617.026 602.137 615.88 601.329 614.943C600.548 613.979 599.168 613.146 597.189 612.443C595.834 611.974 592.749 611.141 587.931 609.943C581.733 608.406 577.384 606.518 574.884 604.279C571.368 601.128 569.611 597.287 569.611 592.755C569.611 589.839 570.431 587.117 572.071 584.591C573.738 582.039 576.121 580.099 579.22 578.771C582.345 577.443 586.108 576.779 590.509 576.779C597.696 576.779 603.1 578.354 606.72 581.505C610.366 584.656 612.28 588.862 612.462 594.123L600.9 594.63C600.405 591.688 599.337 589.578 597.696 588.302C596.082 587 593.647 586.349 590.392 586.349C587.032 586.349 584.402 587.039 582.501 588.419C581.277 589.305 580.665 590.49 580.665 591.974C580.665 593.328 581.238 594.487 582.384 595.451C583.842 596.675 587.384 597.951 593.009 599.279C598.634 600.607 602.788 601.987 605.47 603.419C608.178 604.826 610.288 606.766 611.798 609.24C613.334 611.688 614.103 614.722 614.103 618.341C614.103 621.623 613.191 624.695 611.368 627.56C609.545 630.425 606.967 632.56 603.634 633.966C600.301 635.347 596.147 636.037 591.173 636.037C583.933 636.037 578.374 634.37 574.493 631.037C570.613 627.677 568.295 622.794 567.54 616.388ZM631.442 635.021V577.755H673.903V587.443H643.004V600.138H671.754V609.787H643.004V625.373H674.996V635.021H631.442Z" fill="#1622B0"/>
</svg>
