<svg width="833" height="833" viewBox="0 0 833 833" fill="none" xmlns="http://www.w3.org/2000/svg">
<rect width="833" height="833" rx="48" fill="#0357B6"/>
<line x1="347.751" y1="151.546" x2="347.751" y2="256.926" stroke="white"/>
<line x1="386.892" y1="111.402" x2="386.892" y2="219.792" stroke="white"/>
<path d="M460.66 219.291H386.894" stroke="white" stroke-linecap="round"/>
<line x1="422.022" y1="256.422" x2="347.751" y2="256.422" stroke="white" stroke-linecap="square"/>
<line x1="460.649" y1="219.496" x2="422.563" y2="256.425" stroke="white" stroke-linecap="round"/>
<line x1="386.75" y1="111.751" x2="347.609" y2="151.895" stroke="white"/>
<rect x="347.751" y="152.046" width="39.1446" height="104.38" fill="white" stroke="white"/>
<rect x="347.751" y="256.426" width="37.1373" height="74.2711" transform="rotate(-90 347.751 256.426)" fill="white" stroke="white"/>
<path d="M419.512 219.291H460.66L441.591 237.857L422.021 256.424L418.006 237.356L419.512 219.291Z" fill="white" stroke="white"/>
<path d="M386.894 111.904V153.052L367.323 155.561L347.753 151.547L386.894 111.904Z" fill="white"/>
<path d="M386.894 153.052V111.904L347.753 151.547M386.894 153.052C371.608 153.248 363.038 151.351 347.753 151.547M386.894 153.052L367.323 155.561L347.753 151.547" stroke="white"/>
<line x1="490.268" y1="523.887" x2="490.268" y2="418.508" stroke="white"/>
<line x1="451.126" y1="564.032" x2="451.126" y2="455.641" stroke="white"/>
<path d="M377.359 456.143H451.125" stroke="white" stroke-linecap="round"/>
<line x1="415.996" y1="419.011" x2="490.267" y2="419.011" stroke="white" stroke-linecap="square"/>
<line x1="377.37" y1="455.938" x2="415.456" y2="419.009" stroke="white" stroke-linecap="round"/>
<line x1="451.268" y1="563.683" x2="490.409" y2="523.538" stroke="white"/>
<rect x="490.268" y="523.387" width="39.1446" height="104.38" transform="rotate(-180 490.268 523.387)" fill="white" stroke="white"/>
<rect x="490.268" y="419.008" width="37.1373" height="74.2711" transform="rotate(90 490.268 419.008)" fill="white" stroke="white"/>
<path d="M418.507 456.143H377.359L396.428 437.576L415.998 419.009L420.013 438.078L418.507 456.143Z" fill="white" stroke="white"/>
<path d="M451.125 563.53V522.382L470.695 519.873L490.266 523.887L451.125 563.53Z" fill="white"/>
<path d="M451.125 522.382V563.53L490.266 523.887M451.125 522.382C466.41 522.186 474.98 524.083 490.266 523.887M451.125 522.382L470.695 519.873L490.266 523.887" stroke="white"/>
<line y1="-0.5" x2="105.38" y2="-0.5" transform="matrix(-1 0 0 1 601.165 407.467)" stroke="white"/>
<line y1="-0.5" x2="108.39" y2="-0.5" transform="matrix(-1 0 0 1 641.31 368.326)" stroke="white"/>
<path d="M533.421 294.059V367.824" stroke="white" stroke-linecap="round"/>
<line x1="0.5" y1="-0.5" x2="74.7711" y2="-0.5" transform="matrix(0 1 1 0 496.789 332.196)" stroke="white" stroke-linecap="square"/>
<line x1="0.5" y1="-0.5" x2="53.5496" y2="-0.5" transform="matrix(-0.696123 0.717923 0.717923 0.696123 533.923 294.059)" stroke="white" stroke-linecap="round"/>
<line y1="-0.5" x2="56.0678" y2="-0.5" transform="matrix(-0.716 0.6981 0.6981 0.716 641.31 368.326)" stroke="white"/>
<rect x="-0.5" y="-0.5" width="39.1446" height="104.38" transform="matrix(0 -1 -1 0 600.165 406.467)" fill="white" stroke="white"/>
<rect x="0.5" y="-0.5" width="37.1373" height="74.2711" transform="matrix(1 0 0 -1 495.785 406.467)" fill="white" stroke="white"/>
<path d="M533.421 335.207V294.059L514.854 313.127L496.287 332.698L515.356 336.712L533.421 335.207Z" fill="white" stroke="white"/>
<path d="M640.808 367.824H599.66L597.151 387.395L601.165 406.965L640.808 367.824Z" fill="white"/>
<path d="M599.66 367.824H640.808L601.165 406.965M599.66 367.824C599.464 383.11 601.361 391.68 601.165 406.965M599.66 367.824L597.151 387.395L601.165 406.965" stroke="white"/>
<line y1="-0.5" x2="105.38" y2="-0.5" transform="matrix(-1 0 0 1 582.097 285.027)" stroke="white"/>
<line y1="-0.5" x2="108.39" y2="-0.5" transform="matrix(-1 0 0 1 622.241 245.885)" stroke="white"/>
<path d="M514.353 171.618V245.384" stroke="white" stroke-linecap="round"/>
<line x1="0.5" y1="-0.5" x2="74.7711" y2="-0.5" transform="matrix(0 1 1 0 477.721 209.756)" stroke="white" stroke-linecap="square"/>
<line x1="0.5" y1="-0.5" x2="53.5496" y2="-0.5" transform="matrix(-0.696123 0.717923 0.717923 0.696123 514.855 171.618)" stroke="white" stroke-linecap="round"/>
<line y1="-0.5" x2="56.0678" y2="-0.5" transform="matrix(-0.716 0.6981 0.6981 0.716 622.241 245.885)" stroke="white"/>
<rect x="-0.5" y="-0.5" width="39.1446" height="104.38" transform="matrix(0 -1 -1 0 581.097 284.027)" fill="white" stroke="white"/>
<rect x="0.5" y="-0.5" width="37.1373" height="74.2711" transform="matrix(1 0 0 -1 476.717 284.027)" fill="white" stroke="white"/>
<path d="M514.353 212.767V171.618L495.786 190.687L477.219 210.258L496.288 214.272L514.353 212.767Z" fill="white" stroke="white"/>
<path d="M621.74 245.384H580.591L578.082 264.954L582.097 284.525L621.74 245.384Z" fill="white"/>
<path d="M580.591 245.384H621.74L582.097 284.525M580.591 245.384C580.395 260.669 582.293 269.239 582.097 284.525M580.591 245.384L578.082 264.954L582.097 284.525" stroke="white"/>
<line y1="-0.5" x2="105.38" y2="-0.5" transform="matrix(1 0 0 -1 238.861 261.944)" stroke="white"/>
<line y1="-0.5" x2="108.39" y2="-0.5" transform="matrix(1 0 0 -1 198.716 301.084)" stroke="white"/>
<path d="M306.604 375.352V301.586" stroke="white" stroke-linecap="round"/>
<line x1="0.5" y1="-0.5" x2="74.7711" y2="-0.5" transform="matrix(0 -1 -1 0 343.236 337.215)" stroke="white" stroke-linecap="square"/>
<line x1="0.5" y1="-0.5" x2="53.5496" y2="-0.5" transform="matrix(0.696123 -0.717923 -0.717923 -0.696123 306.103 375.352)" stroke="white" stroke-linecap="round"/>
<line y1="-0.5" x2="56.0678" y2="-0.5" transform="matrix(0.716 -0.6981 -0.6981 -0.716 198.716 301.084)" stroke="white"/>
<rect x="0.5" y="0.5" width="39.1446" height="104.38" transform="matrix(0 1 1 0 238.861 261.944)" fill="white" stroke="white"/>
<rect x="-0.5" y="0.5" width="37.1373" height="74.2711" transform="matrix(-1 0 0 1 343.24 261.944)" fill="white" stroke="white"/>
<path d="M306.604 334.204V375.352L325.171 356.284L343.738 336.713L324.67 332.699L306.604 334.204Z" fill="white" stroke="white"/>
<path d="M199.218 301.587H240.366L242.875 282.016L238.861 262.446L199.218 301.587Z" fill="white"/>
<path d="M240.366 301.587H199.218L238.861 262.446M240.366 301.587C240.562 286.301 238.665 277.731 238.861 262.446M240.366 301.587L242.875 282.016L238.861 262.446" stroke="white"/>
<line y1="-0.5" x2="105.38" y2="-0.5" transform="matrix(1 0 0 -1 258.933 382.377)" stroke="white"/>
<line y1="-0.5" x2="108.39" y2="-0.5" transform="matrix(1 0 0 -1 218.788 421.518)" stroke="white"/>
<path d="M326.677 495.786V422.02" stroke="white" stroke-linecap="round"/>
<line x1="0.5" y1="-0.5" x2="74.7711" y2="-0.5" transform="matrix(0 -1 -1 0 363.309 457.648)" stroke="white" stroke-linecap="square"/>
<line x1="0.5" y1="-0.5" x2="53.5496" y2="-0.5" transform="matrix(0.696123 -0.717923 -0.717923 -0.696123 326.175 495.786)" stroke="white" stroke-linecap="round"/>
<line y1="-0.5" x2="56.0678" y2="-0.5" transform="matrix(0.716 -0.6981 -0.6981 -0.716 218.788 421.518)" stroke="white"/>
<rect x="0.5" y="0.5" width="39.1446" height="104.38" transform="matrix(0 1 1 0 258.933 382.377)" fill="white" stroke="white"/>
<rect x="-0.5" y="0.5" width="37.1373" height="74.2711" transform="matrix(-1 0 0 1 363.312 382.377)" fill="white" stroke="white"/>
<path d="M326.677 454.638V495.786L345.244 476.717L363.81 457.147L344.742 453.132L326.677 454.638Z" fill="white" stroke="white"/>
<path d="M219.29 422.02H260.438L262.947 402.45L258.933 382.879L219.29 422.02Z" fill="white"/>
<path d="M260.438 422.02H219.29L258.933 382.879M260.438 422.02C260.634 406.735 258.737 398.165 258.933 382.879M260.438 422.02L262.947 402.45L258.933 382.879" stroke="white"/>
<circle cx="421.016" cy="337.717" r="67.244" fill="white" stroke="white"/>
<path d="M162.811 578.758H183.944C188.709 578.758 192.342 579.123 194.842 579.852C198.201 580.842 201.079 582.599 203.475 585.125C205.871 587.652 207.694 590.75 208.944 594.422C210.194 598.068 210.819 602.573 210.819 607.938C210.819 612.652 210.233 616.714 209.061 620.125C207.629 624.292 205.584 627.665 202.928 630.243C200.923 632.196 198.214 633.719 194.803 634.813C192.251 635.62 188.839 636.024 184.569 636.024H162.811V578.758ZM174.373 588.446V626.375H183.006C186.235 626.375 188.566 626.193 189.998 625.829C191.873 625.36 193.423 624.566 194.647 623.446C195.897 622.326 196.912 620.49 197.694 617.938C198.475 615.36 198.866 611.857 198.866 607.43C198.866 603.003 198.475 599.605 197.694 597.235C196.912 594.865 195.819 593.016 194.412 591.688C193.006 590.36 191.222 589.461 189.061 588.993C187.446 588.628 184.282 588.446 179.569 588.446H174.373ZM228.275 636.024V578.758H270.736V588.446H239.837V601.141H268.587V610.79H239.837V626.375H271.83V636.024H228.275ZM302.137 636.024V588.446H285.145V578.758H330.653V588.446H313.7V636.024H302.137ZM345.805 636.024V578.758H370.141C376.26 578.758 380.7 579.279 383.461 580.321C386.247 581.336 388.474 583.159 390.141 585.79C391.807 588.42 392.641 591.428 392.641 594.813C392.641 599.11 391.378 602.665 388.851 605.477C386.325 608.264 382.549 610.021 377.523 610.75C380.023 612.209 382.081 613.81 383.695 615.555C385.336 617.3 387.536 620.399 390.297 624.852L397.289 636.024H383.461L375.101 623.563C372.133 619.11 370.101 616.31 369.008 615.165C367.914 613.993 366.755 613.198 365.531 612.782C364.307 612.339 362.367 612.118 359.711 612.118H357.367V636.024H345.805ZM357.367 602.977H365.922C371.469 602.977 374.932 602.743 376.312 602.274C377.693 601.805 378.773 600.998 379.555 599.852C380.336 598.706 380.726 597.274 380.726 595.555C380.726 593.628 380.206 592.079 379.164 590.907C378.148 589.709 376.703 588.954 374.828 588.641C373.891 588.511 371.078 588.446 366.391 588.446H357.367V602.977ZM462.831 636.024H450.253L445.253 623.016H422.362L417.636 636.024H405.37L427.675 578.758H439.901L462.831 636.024ZM441.542 613.368L433.651 592.118L425.917 613.368H441.542ZM476.733 636.024V578.758H487.983L511.42 617V578.758H522.162V636.024H510.561L487.475 598.68V636.024H476.733ZM539.306 620.75V609.774H560.869V620.75H539.306ZM570.551 617.391L581.801 616.297C582.479 620.073 583.846 622.847 585.903 624.618C587.986 626.389 590.786 627.274 594.301 627.274C598.025 627.274 600.825 626.493 602.7 624.93C604.601 623.342 605.551 621.493 605.551 619.383C605.551 618.029 605.148 616.883 604.341 615.946C603.559 614.982 602.179 614.149 600.2 613.446C598.846 612.977 595.76 612.144 590.942 610.946C584.744 609.409 580.395 607.521 577.895 605.282C574.38 602.131 572.622 598.29 572.622 593.758C572.622 590.842 573.442 588.12 575.083 585.594C576.749 583.042 579.132 581.102 582.231 579.774C585.356 578.446 589.119 577.782 593.52 577.782C600.708 577.782 606.111 579.357 609.731 582.508C613.377 585.659 615.291 589.865 615.473 595.125L603.911 595.633C603.416 592.691 602.348 590.581 600.708 589.305C599.093 588.003 596.658 587.352 593.403 587.352C590.044 587.352 587.413 588.042 585.512 589.422C584.288 590.308 583.676 591.493 583.676 592.977C583.676 594.331 584.249 595.49 585.395 596.454C586.854 597.678 590.395 598.954 596.02 600.282C601.645 601.61 605.799 602.99 608.481 604.422C611.19 605.829 613.299 607.769 614.809 610.243C616.346 612.691 617.114 615.724 617.114 619.344C617.114 622.625 616.203 625.698 614.38 628.563C612.557 631.428 609.979 633.563 606.645 634.969C603.312 636.349 599.158 637.04 594.184 637.04C586.945 637.04 581.385 635.373 577.505 632.04C573.624 628.68 571.307 623.797 570.551 617.391ZM634.453 636.024V578.758H676.914V588.446H646.016V601.141H674.766V610.79H646.016V626.375H678.008V636.024H634.453Z" fill="white"/>
</svg>
