<svg width="536" height="548" viewBox="0 0 536 548" fill="none" xmlns="http://www.w3.org/2000/svg">
<line x1="180.71" y1="49.4355" x2="180.71" y2="176.579" stroke="#0357B6"/>
<line x1="227.935" y1="1" x2="227.935" y2="131.776" stroke="#0357B6"/>
<path d="M317.041 131.171L228.041 131.171" stroke="#0357B6" stroke-linecap="round"/>
<line x1="270.527" y1="175.868" x2="180.711" y2="175.868" stroke="#0357B6" stroke-linecap="square"/>
<line x1="317.03" y1="131.272" x2="270.931" y2="175.971" stroke="#0357B6" stroke-linecap="round"/>
<line x1="227.793" y1="1.34905" x2="180.569" y2="49.7845" stroke="#0357B6"/>
<rect x="180.71" y="49.9355" width="47.4354" height="126.143" fill="#0357B6" stroke="#0357B6"/>
<rect x="180.71" y="176.079" width="45.0137" height="89.8164" transform="rotate(-90 180.71 176.079)" fill="#0357B6" stroke="#0357B6"/>
<path d="M267.394 131.171H317.041L294.034 153.572L270.422 175.973L265.578 152.967L267.394 131.171Z" fill="#0357B6" stroke="#0357B6"/>
<path d="M228.04 1.60571V51.252L204.428 54.2792L180.816 49.4357L228.04 1.60571Z" fill="#0357B6"/>
<path d="M228.04 51.252V1.60571L180.816 49.4357M228.04 51.252C209.598 51.4885 199.258 49.1993 180.816 49.4357M228.04 51.252L204.428 54.2792L180.816 49.4357" stroke="#0357B6"/>
<line x1="352.867" y1="498.673" x2="352.867" y2="371.53" stroke="#0357B6"/>
<line x1="305.643" y1="547.109" x2="305.643" y2="416.333" stroke="#0357B6"/>
<path d="M216.537 416.938H305.537" stroke="#0357B6" stroke-linecap="round"/>
<line x1="263.051" y1="372.241" x2="352.867" y2="372.241" stroke="#0357B6" stroke-linecap="square"/>
<line x1="216.548" y1="416.837" x2="262.647" y2="372.137" stroke="#0357B6" stroke-linecap="round"/>
<line x1="305.785" y1="546.76" x2="353.009" y2="498.324" stroke="#0357B6"/>
<rect x="352.867" y="498.173" width="47.4354" height="126.143" transform="rotate(-180 352.867 498.173)" fill="#0357B6" stroke="#0357B6"/>
<rect x="352.867" y="372.03" width="45.0137" height="89.8164" transform="rotate(90 352.867 372.03)" fill="#0357B6" stroke="#0357B6"/>
<path d="M266.183 416.938H216.537L239.544 394.537L263.156 372.135L268 395.142L266.183 416.938Z" fill="#0357B6" stroke="#0357B6"/>
<path d="M305.538 546.503V496.857L329.15 493.83L352.762 498.673L305.538 546.503Z" fill="#0357B6"/>
<path d="M305.538 496.857V546.503L352.762 498.673M305.538 496.857C323.98 496.621 334.32 498.91 352.762 498.673M305.538 496.857L329.15 493.83L352.762 498.673" stroke="#0357B6"/>
<line y1="-0.5" x2="127.143" y2="-0.5" transform="matrix(-1 0 0 1 486.564 358.21)" stroke="#0357B6"/>
<line y1="-0.5" x2="130.776" y2="-0.5" transform="matrix(-1 0 0 1 535 310.985)" stroke="#0357B6"/>
<path d="M404.829 221.38V310.38" stroke="#0357B6" stroke-linecap="round"/>
<line x1="0.5" y1="-0.5" x2="90.3164" y2="-0.5" transform="matrix(0 1 1 0 360.632 267.394)" stroke="#0357B6" stroke-linecap="square"/>
<line x1="0.5" y1="-0.5" x2="64.7122" y2="-0.5" transform="matrix(-0.696123 0.717923 0.717923 0.696123 405.436 221.38)" stroke="#0357B6" stroke-linecap="round"/>
<line y1="-0.5" x2="67.6472" y2="-0.5" transform="matrix(-0.716 0.6981 0.6981 0.716 535 310.985)" stroke="#0357B6"/>
<rect x="-0.5" y="-0.5" width="47.4354" height="126.143" transform="matrix(0 -1 -1 0 485.564 357.21)" fill="#0357B6" stroke="#0357B6"/>
<rect x="0.5" y="-0.5" width="45.0137" height="89.8164" transform="matrix(1 0 0 -1 359.421 357.21)" fill="#0357B6" stroke="#0357B6"/>
<path d="M404.829 271.027V221.38L382.428 244.387L360.026 267.999L383.033 272.843L404.829 271.027Z" fill="#0357B6" stroke="#0357B6"/>
<path d="M534.395 310.38H484.748L481.721 333.992L486.565 357.605L534.395 310.38Z" fill="#0357B6"/>
<path d="M484.748 310.38H534.395L486.565 357.605M484.748 310.38C484.512 328.823 486.801 339.162 486.565 357.605M484.748 310.38L481.721 333.992L486.565 357.605" stroke="#0357B6"/>
<line y1="-0.5" x2="127.143" y2="-0.5" transform="matrix(-1 0 0 1 463.558 210.483)" stroke="#0357B6"/>
<line y1="-0.5" x2="130.776" y2="-0.5" transform="matrix(-1 0 0 1 511.994 163.258)" stroke="#0357B6"/>
<path d="M381.823 73.6528V162.653" stroke="#0357B6" stroke-linecap="round"/>
<line x1="0.5" y1="-0.5" x2="90.3164" y2="-0.5" transform="matrix(0 1 1 0 337.626 119.666)" stroke="#0357B6" stroke-linecap="square"/>
<line x1="0.5" y1="-0.5" x2="64.7122" y2="-0.5" transform="matrix(-0.696123 0.717923 0.717923 0.696123 382.43 73.6528)" stroke="#0357B6" stroke-linecap="round"/>
<line y1="-0.5" x2="67.6472" y2="-0.5" transform="matrix(-0.716 0.6981 0.6981 0.716 511.994 163.258)" stroke="#0357B6"/>
<rect x="-0.5" y="-0.5" width="47.4354" height="126.143" transform="matrix(0 -1 -1 0 462.558 209.483)" fill="#0357B6" stroke="#0357B6"/>
<rect x="0.5" y="-0.5" width="45.0137" height="89.8164" transform="matrix(1 0 0 -1 336.416 209.483)" fill="#0357B6" stroke="#0357B6"/>
<path d="M381.823 123.299V73.6528L359.422 96.6597L337.02 120.272L360.027 125.115L381.823 123.299Z" fill="#0357B6" stroke="#0357B6"/>
<path d="M511.389 162.653H461.742L458.715 186.265L463.559 209.877L511.389 162.653Z" fill="#0357B6"/>
<path d="M461.742 162.653H511.389L463.559 209.877M461.742 162.653C461.506 181.095 463.795 191.435 463.559 209.877M461.742 162.653L458.715 186.265L463.559 209.877" stroke="#0357B6"/>
<line y1="-0.5" x2="127.143" y2="-0.5" transform="matrix(1 0 0 -1 49.4355 182.632)" stroke="#0357B6"/>
<line y1="-0.5" x2="130.776" y2="-0.5" transform="matrix(1 0 0 -1 1 229.856)" stroke="#0357B6"/>
<path d="M131.17 319.462V230.462" stroke="#0357B6" stroke-linecap="round"/>
<line x1="0.5" y1="-0.5" x2="90.3164" y2="-0.5" transform="matrix(0 -1 -1 0 175.368 273.449)" stroke="#0357B6" stroke-linecap="square"/>
<line x1="0.5" y1="-0.5" x2="64.7122" y2="-0.5" transform="matrix(0.696123 -0.717923 -0.717923 -0.696123 130.565 319.462)" stroke="#0357B6" stroke-linecap="round"/>
<line y1="-0.5" x2="67.6472" y2="-0.5" transform="matrix(0.716 -0.6981 -0.6981 -0.716 1 229.856)" stroke="#0357B6"/>
<rect x="0.5" y="0.5" width="47.4354" height="126.143" transform="matrix(0 1 1 0 49.4355 182.632)" fill="#0357B6" stroke="#0357B6"/>
<rect x="-0.5" y="0.5" width="45.0137" height="89.8164" transform="matrix(-1 0 0 1 175.578 182.632)" fill="#0357B6" stroke="#0357B6"/>
<path d="M131.17 269.816L131.17 319.462L153.572 296.456L175.973 272.843L152.966 268L131.17 269.816Z" fill="#0357B6" stroke="#0357B6"/>
<path d="M1.60498 230.462H51.2513L54.2785 206.85L49.435 183.238L1.60498 230.462Z" fill="#0357B6"/>
<path d="M51.2513 230.462H1.60498L49.435 183.238M51.2513 230.462C51.4877 212.02 49.1985 201.68 49.435 183.238M51.2513 230.462L54.2785 206.85L49.435 183.238" stroke="#0357B6"/>
<line y1="-0.5" x2="127.143" y2="-0.5" transform="matrix(1 0 0 -1 73.6528 327.939)" stroke="#0357B6"/>
<line y1="-0.5" x2="130.776" y2="-0.5" transform="matrix(1 0 0 -1 25.2178 375.163)" stroke="#0357B6"/>
<path d="M155.388 464.769V375.769" stroke="#0357B6" stroke-linecap="round"/>
<line x1="0.5" y1="-0.5" x2="90.3164" y2="-0.5" transform="matrix(0 -1 -1 0 199.585 418.755)" stroke="#0357B6" stroke-linecap="square"/>
<line x1="0.5" y1="-0.5" x2="64.7122" y2="-0.5" transform="matrix(0.696123 -0.717923 -0.717923 -0.696123 154.782 464.769)" stroke="#0357B6" stroke-linecap="round"/>
<line y1="-0.5" x2="67.6472" y2="-0.5" transform="matrix(0.716 -0.6981 -0.6981 -0.716 25.2178 375.163)" stroke="#0357B6"/>
<rect x="0.5" y="0.5" width="47.4354" height="126.143" transform="matrix(0 1 1 0 73.6528 327.939)" fill="#0357B6" stroke="#0357B6"/>
<rect x="-0.5" y="0.5" width="45.0137" height="89.8164" transform="matrix(-1 0 0 1 199.796 327.939)" fill="#0357B6" stroke="#0357B6"/>
<path d="M155.388 415.123L155.388 464.769L177.79 441.762L200.191 418.15L177.184 413.307L155.388 415.123Z" fill="#0357B6" stroke="#0357B6"/>
<path d="M25.8228 375.769H75.4691L78.4963 352.157L73.6527 328.545L25.8228 375.769Z" fill="#0357B6"/>
<path d="M75.4691 375.769H25.8228L73.6527 328.545M75.4691 375.769C75.7055 357.327 73.4163 346.987 73.6527 328.545M75.4691 375.769L78.4963 352.157L73.6527 328.545" stroke="#0357B6"/>
<circle cx="269.211" cy="274.054" r="81.2348" fill="#0357B6" stroke="#0357B6"/>
</svg>
