<svg width="1119" height="455" viewBox="0 0 1119 455" fill="none" xmlns="http://www.w3.org/2000/svg">
<path d="M433.625 176.418H460.041C465.998 176.418 470.539 176.874 473.664 177.785C477.863 179.022 481.46 181.219 484.455 184.377C487.45 187.535 489.729 191.408 491.291 195.998C492.854 200.555 493.635 206.187 493.635 212.893C493.635 218.785 492.902 223.863 491.438 228.127C489.647 233.335 487.092 237.551 483.771 240.773C481.265 243.215 477.88 245.119 473.615 246.486C470.425 247.495 466.161 248 460.822 248H433.625V176.418ZM448.078 188.527V235.939H458.869C462.906 235.939 465.819 235.712 467.609 235.256C469.953 234.67 471.89 233.677 473.42 232.277C474.982 230.878 476.252 228.583 477.229 225.393C478.205 222.17 478.693 217.792 478.693 212.258C478.693 206.724 478.205 202.476 477.229 199.514C476.252 196.551 474.885 194.24 473.127 192.58C471.369 190.92 469.139 189.797 466.438 189.211C464.419 188.755 460.464 188.527 454.572 188.527H448.078ZM515.455 248V176.418H568.531V188.527H529.908V204.396H565.846V216.457H529.908V235.939H569.898V248H515.455ZM607.783 248V188.527H586.543V176.418H643.428V188.527H622.236V248H607.783ZM662.367 248V176.418H692.787C700.437 176.418 705.987 177.069 709.438 178.371C712.921 179.641 715.704 181.919 717.787 185.207C719.87 188.495 720.912 192.255 720.912 196.486C720.912 201.857 719.333 206.301 716.176 209.816C713.018 213.299 708.298 215.497 702.016 216.408C705.141 218.231 707.712 220.233 709.73 222.414C711.781 224.595 714.532 228.469 717.982 234.035L726.723 248H709.438L698.988 232.424C695.277 226.857 692.738 223.358 691.371 221.926C690.004 220.461 688.555 219.468 687.025 218.947C685.495 218.394 683.07 218.117 679.75 218.117H676.82V248H662.367ZM676.82 206.691H687.514C694.447 206.691 698.777 206.398 700.502 205.812C702.227 205.227 703.578 204.217 704.555 202.785C705.531 201.353 706.02 199.562 706.02 197.414C706.02 195.005 705.368 193.068 704.066 191.604C702.797 190.106 700.99 189.162 698.646 188.771C697.475 188.609 693.959 188.527 688.1 188.527H676.82V206.691ZM808.65 248H792.928L786.678 231.74H758.064L752.156 248H736.824L764.705 176.418H779.988L808.65 248ZM782.039 219.68L772.176 193.117L762.508 219.68H782.039ZM826.027 248V176.418H840.09L869.387 224.221V176.418H882.814V248H868.312L839.455 201.32V248H826.027ZM904.244 228.908V215.188H931.197V228.908H904.244ZM943.301 224.709L957.363 223.342C958.21 228.062 959.919 231.529 962.49 233.742C965.094 235.956 968.594 237.062 972.988 237.062C977.643 237.062 981.143 236.086 983.486 234.133C985.863 232.147 987.051 229.836 987.051 227.199C987.051 225.507 986.546 224.074 985.537 222.902C984.561 221.698 982.835 220.656 980.361 219.777C978.669 219.191 974.811 218.15 968.789 216.652C961.042 214.732 955.605 212.372 952.48 209.572C948.086 205.633 945.889 200.832 945.889 195.168C945.889 191.522 946.914 188.12 948.965 184.963C951.048 181.773 954.027 179.348 957.9 177.688C961.807 176.027 966.51 175.197 972.012 175.197C980.996 175.197 987.751 177.167 992.275 181.105C996.833 185.044 999.225 190.301 999.453 196.877L985 197.512C984.382 193.833 983.047 191.197 980.996 189.602C978.978 187.974 975.934 187.16 971.865 187.16C967.666 187.16 964.378 188.023 962.002 189.748C960.472 190.855 959.707 192.336 959.707 194.191C959.707 195.884 960.423 197.333 961.855 198.537C963.678 200.067 968.105 201.662 975.137 203.322C982.168 204.982 987.36 206.708 990.713 208.498C994.098 210.256 996.735 212.681 998.623 215.773C1000.54 218.833 1001.5 222.626 1001.5 227.15C1001.5 231.252 1000.36 235.093 998.086 238.674C995.807 242.255 992.585 244.924 988.418 246.682C984.251 248.407 979.059 249.27 972.842 249.27C963.792 249.27 956.842 247.186 951.992 243.02C947.142 238.82 944.245 232.717 943.301 224.709ZM1023.18 248V176.418H1076.25V188.527H1037.63V204.396H1073.57V216.457H1037.63V235.939H1077.62V248H1023.18Z" fill="white"/>
<line x1="150.035" y1="41.1447" x2="150.035" y2="146.524" stroke="white"/>
<line x1="189.176" y1="0.999939" x2="189.176" y2="109.39" stroke="white"/>
<path d="M262.943 108.889L189.178 108.889" stroke="white" stroke-linecap="round"/>
<line x1="224.306" y1="146.021" x2="150.035" y2="146.021" stroke="white" stroke-linecap="square"/>
<line x1="262.932" y1="109.094" x2="224.847" y2="146.023" stroke="white" stroke-linecap="round"/>
<line x1="189.034" y1="1.34899" x2="149.893" y2="41.4936" stroke="white"/>
<rect x="150.035" y="41.6447" width="39.1446" height="104.38" fill="white" stroke="white"/>
<rect x="150.035" y="146.024" width="37.1373" height="74.2711" transform="rotate(-90 150.035 146.024)" fill="white" stroke="white"/>
<path d="M221.795 108.889H262.944L243.875 127.456L224.304 146.023L220.29 126.954L221.795 108.889Z" fill="white" stroke="white"/>
<path d="M189.178 1.50201V42.6502L169.607 45.1592L150.037 41.1448L189.178 1.50201Z" fill="white"/>
<path d="M189.178 42.6502V1.50201L150.037 41.1448M189.178 42.6502C173.892 42.8462 165.322 40.9488 150.037 41.1448M189.178 42.6502L169.607 45.1592L150.037 41.1448" stroke="white"/>
<line x1="292.551" y1="413.485" x2="292.551" y2="308.105" stroke="white"/>
<line x1="253.41" y1="453.63" x2="253.41" y2="345.239" stroke="white"/>
<path d="M179.643 345.741H253.408" stroke="white" stroke-linecap="round"/>
<line x1="218.28" y1="308.609" x2="292.551" y2="308.609" stroke="white" stroke-linecap="square"/>
<line x1="179.654" y1="345.536" x2="217.739" y2="308.607" stroke="white" stroke-linecap="round"/>
<line x1="253.552" y1="453.281" x2="292.693" y2="413.136" stroke="white"/>
<rect x="292.551" y="412.985" width="39.1446" height="104.38" transform="rotate(-180 292.551 412.985)" fill="white" stroke="white"/>
<rect x="292.551" y="308.606" width="37.1373" height="74.2711" transform="rotate(90 292.551 308.606)" fill="white" stroke="white"/>
<path d="M220.791 345.741H179.643L198.711 327.174L218.282 308.607L222.296 327.676L220.791 345.741Z" fill="white" stroke="white"/>
<path d="M253.409 453.128V411.979L272.979 409.47L292.55 413.485L253.409 453.128Z" fill="white"/>
<path d="M253.409 411.979V453.128L292.55 413.485M253.409 411.979C268.694 411.783 277.264 413.681 292.55 413.485M253.409 411.979L272.979 409.47L292.55 413.485" stroke="white"/>
<line y1="-0.5" x2="105.38" y2="-0.5" transform="matrix(-1 0 0 1 403.449 297.066)" stroke="white"/>
<line y1="-0.5" x2="108.39" y2="-0.5" transform="matrix(-1 0 0 1 443.594 257.924)" stroke="white"/>
<path d="M335.705 183.657V257.423" stroke="white" stroke-linecap="round"/>
<line x1="0.5" y1="-0.5" x2="74.7711" y2="-0.5" transform="matrix(0 1 1 0 299.073 221.794)" stroke="white" stroke-linecap="square"/>
<line x1="0.5" y1="-0.5" x2="53.5496" y2="-0.5" transform="matrix(-0.696123 0.717923 0.717923 0.696123 336.207 183.657)" stroke="white" stroke-linecap="round"/>
<rect x="-0.5" y="-0.5" width="39" height="734" transform="matrix(0 -1 -1 0 1032 296)" fill="white" stroke="white"/>
<rect x="0.5" y="-0.5" width="37.1373" height="74.2711" transform="matrix(1 0 0 -1 298.069 296.066)" fill="white" stroke="white"/>
<path d="M335.705 224.805V183.657L317.138 202.726L298.571 222.296L317.64 226.311L335.705 224.805Z" fill="white" stroke="white"/>
<path d="M1072.5 257.5H1052H1031.5L1029 276.57L1033 296L1072.5 257.5Z" fill="white"/>
<path d="M1031.5 257.5C1031.3 272.785 1033.2 280.715 1033 296M1031.5 257.5L1029 276.57L1033 296M1031.5 257.5H1052H1072.5L1033 296" stroke="white"/>
<line y1="-0.5" x2="105.38" y2="-0.5" transform="matrix(-1 0 0 1 384.381 174.625)" stroke="white"/>
<line y1="-0.5" x2="108.39" y2="-0.5" transform="matrix(-1 0 0 1 424.525 135.484)" stroke="white"/>
<path d="M316.636 61.2166V134.982" stroke="white" stroke-linecap="round"/>
<line x1="0.5" y1="-0.5" x2="74.7711" y2="-0.5" transform="matrix(0 1 1 0 280.004 99.3539)" stroke="white" stroke-linecap="square"/>
<line x1="0.5" y1="-0.5" x2="53.5496" y2="-0.5" transform="matrix(-0.696123 0.717923 0.717923 0.696123 317.138 61.2166)" stroke="white" stroke-linecap="round"/>
<line y1="-0.5" x2="56.0678" y2="-0.5" transform="matrix(-0.716 0.6981 0.6981 0.716 424.525 135.484)" stroke="white"/>
<rect x="-0.5" y="-0.5" width="39.1446" height="104.38" transform="matrix(0 -1 -1 0 383.381 173.625)" fill="white" stroke="white"/>
<rect x="0.5" y="-0.5" width="37.1373" height="74.2711" transform="matrix(1 0 0 -1 279.001 173.625)" fill="white" stroke="white"/>
<path d="M316.636 102.365V61.2165L298.07 80.2851L279.503 99.8556L298.571 103.87L316.636 102.365Z" fill="white" stroke="white"/>
<path d="M424.023 134.982H382.875L380.366 154.553L384.38 174.123L424.023 134.982Z" fill="white"/>
<path d="M382.875 134.982H424.023L384.38 174.123M382.875 134.982C382.679 150.268 384.576 158.837 384.38 174.123M382.875 134.982L380.366 154.553L384.38 174.123" stroke="white"/>
<line y1="-0.5" x2="105.38" y2="-0.5" transform="matrix(1 0 0 -1 41.1448 151.542)" stroke="white"/>
<line y1="-0.5" x2="108.39" y2="-0.5" transform="matrix(1 0 0 -1 1 190.682)" stroke="white"/>
<path d="M108.888 264.95L108.888 191.185" stroke="white" stroke-linecap="round"/>
<line x1="0.5" y1="-0.5" x2="74.7711" y2="-0.5" transform="matrix(0 -1 -1 0 145.521 226.813)" stroke="white" stroke-linecap="square"/>
<line x1="0.5" y1="-0.5" x2="53.5496" y2="-0.5" transform="matrix(0.696123 -0.717923 -0.717923 -0.696123 108.387 264.95)" stroke="white" stroke-linecap="round"/>
<line y1="-0.5" x2="56.0678" y2="-0.5" transform="matrix(0.716 -0.6981 -0.6981 -0.716 1 190.682)" stroke="white"/>
<rect x="0.5" y="0.5" width="39.1446" height="104.38" transform="matrix(0 1 1 0 41.1448 151.542)" fill="white" stroke="white"/>
<rect x="-0.5" y="0.5" width="37.1373" height="74.2711" transform="matrix(-1 0 0 1 145.524 151.542)" fill="white" stroke="white"/>
<path d="M108.888 223.802L108.888 264.95L127.455 245.882L146.022 226.311L126.953 222.297L108.888 223.802Z" fill="white" stroke="white"/>
<path d="M1.50171 191.185H42.6499L45.1589 171.614L41.1445 152.044L1.50171 191.185Z" fill="white"/>
<path d="M42.6499 191.185H1.50171L41.1445 152.044M42.6499 191.185C42.8459 175.899 40.9485 167.329 41.1445 152.044M42.6499 191.185L45.1589 171.614L41.1445 152.044" stroke="white"/>
<line y1="-0.5" x2="105.38" y2="-0.5" transform="matrix(1 0 0 -1 61.217 271.976)" stroke="white"/>
<line y1="-0.5" x2="108.39" y2="-0.5" transform="matrix(1 0 0 -1 21.0723 311.116)" stroke="white"/>
<path d="M128.961 385.384V311.618" stroke="white" stroke-linecap="round"/>
<line x1="0.5" y1="-0.5" x2="74.7711" y2="-0.5" transform="matrix(0 -1 -1 0 165.593 347.247)" stroke="white" stroke-linecap="square"/>
<line x1="0.5" y1="-0.5" x2="53.5496" y2="-0.5" transform="matrix(0.696123 -0.717923 -0.717923 -0.696123 128.459 385.384)" stroke="white" stroke-linecap="round"/>
<line y1="-0.5" x2="56.0678" y2="-0.5" transform="matrix(0.716 -0.6981 -0.6981 -0.716 21.0723 311.116)" stroke="white"/>
<rect x="0.5" y="0.5" width="39.1446" height="104.38" transform="matrix(0 1 1 0 61.217 271.976)" fill="white" stroke="white"/>
<rect x="-0.5" y="0.5" width="37.1373" height="74.2711" transform="matrix(-1 0 0 1 165.596 271.976)" fill="white" stroke="white"/>
<path d="M128.961 344.236V385.384L147.528 366.316L166.094 346.745L147.026 342.731L128.961 344.236Z" fill="white" stroke="white"/>
<path d="M21.574 311.619H62.7222L65.2312 292.048L61.2167 272.478L21.574 311.619Z" fill="white"/>
<path d="M62.7222 311.619H21.574L61.2167 272.478M62.7222 311.619C62.9181 296.333 61.0208 287.763 61.2167 272.478M62.7222 311.619L65.2312 292.048L61.2167 272.478" stroke="white"/>
<circle cx="223.301" cy="227.315" r="67.244" fill="white" stroke="white"/>
</svg>
