<svg width="1198" height="455" viewBox="0 0 1198 455" fill="none" xmlns="http://www.w3.org/2000/svg">
<path d="M420.063 246V160.688H446.313C453.813 160.688 460.513 162.387 466.411 165.785C472.348 169.145 476.977 173.949 480.298 180.199C483.618 186.41 485.278 193.48 485.278 201.41V205.336C485.278 213.266 483.638 220.316 480.356 226.488C477.114 232.66 472.524 237.445 466.587 240.844C460.649 244.242 453.95 245.961 446.489 246H420.063ZM437.641 174.926V231.879H446.138C453.013 231.879 458.266 229.633 461.899 225.141C465.532 220.648 467.388 214.223 467.466 205.863V201.352C467.466 192.68 465.669 186.117 462.075 181.664C458.481 177.172 453.227 174.926 446.313 174.926H437.641ZM560.857 209.027H527.107V231.879H566.716V246H509.529V160.688H566.599V174.926H527.107V195.258H560.857V209.027ZM653.838 174.926H627.705V246H610.127V174.926H584.346V160.688H653.838V174.926ZM706.917 214.77H692.913V246H675.335V160.688H707.034C717.113 160.688 724.886 162.934 730.355 167.426C735.823 171.918 738.558 178.266 738.558 186.469C738.558 192.289 737.288 197.152 734.749 201.059C732.249 204.926 728.441 208.012 723.323 210.316L741.78 245.18V246H722.913L706.917 214.77ZM692.913 200.531H707.093C711.507 200.531 714.925 199.418 717.347 197.191C719.769 194.926 720.98 191.82 720.98 187.875C720.98 183.852 719.827 180.688 717.523 178.383C715.257 176.078 711.761 174.926 707.034 174.926H692.913V200.531ZM811.559 228.422H780.738L774.879 246H756.188L787.945 160.688H804.234L836.168 246H817.477L811.559 228.422ZM785.484 214.184H806.812L796.09 182.25L785.484 214.184ZM924.93 246H907.352L873.134 189.867V246H855.555V160.688H873.134L907.411 216.938V160.688H924.93V246ZM981.408 216.293H948.42V202.641H981.408V216.293ZM1049.66 223.617C1049.66 220.297 1048.49 217.758 1046.15 216C1043.8 214.203 1039.58 212.328 1033.49 210.375C1027.4 208.383 1022.57 206.43 1019.02 204.516C1009.33 199.281 1004.49 192.23 1004.49 183.363C1004.49 178.754 1005.78 174.652 1008.35 171.059C1010.97 167.426 1014.7 164.594 1019.55 162.562C1024.43 160.531 1029.9 159.516 1035.95 159.516C1042.05 159.516 1047.48 160.629 1052.24 162.855C1057.01 165.043 1060.7 168.148 1063.31 172.172C1065.97 176.195 1067.3 180.766 1067.3 185.883H1049.72C1049.72 181.977 1048.49 178.949 1046.03 176.801C1043.57 174.613 1040.11 173.52 1035.66 173.52C1031.36 173.52 1028.02 174.438 1025.64 176.273C1023.26 178.07 1022.06 180.453 1022.06 183.422C1022.06 186.195 1023.45 188.52 1026.23 190.395C1029.04 192.27 1033.16 194.027 1038.59 195.668C1048.59 198.676 1055.87 202.406 1060.44 206.859C1065.01 211.312 1067.3 216.859 1067.3 223.5C1067.3 230.883 1064.51 236.684 1058.92 240.902C1053.33 245.082 1045.81 247.172 1036.36 247.172C1029.8 247.172 1023.82 245.98 1018.43 243.598C1013.04 241.176 1008.92 237.875 1006.07 233.695C1003.26 229.516 1001.85 224.672 1001.85 219.164H1019.49C1019.49 228.578 1025.11 233.285 1036.36 233.285C1040.54 233.285 1043.8 232.445 1046.15 230.766C1048.49 229.047 1049.66 226.664 1049.66 223.617ZM1142 209.027H1108.25V231.879H1147.86V246H1090.67V160.688H1147.74V174.926H1108.25V195.258H1142V209.027Z" fill="#0357B6"/>
<line x1="150.035" y1="41.1448" x2="150.035" y2="146.524" stroke="#0357B6"/>
<line x1="189.176" y1="1" x2="189.176" y2="109.39" stroke="#0357B6"/>
<path d="M262.943 108.889L189.178 108.889" stroke="#0357B6" stroke-linecap="round"/>
<line x1="224.306" y1="146.021" x2="150.035" y2="146.021" stroke="#0357B6" stroke-linecap="square"/>
<line x1="262.932" y1="109.094" x2="224.847" y2="146.023" stroke="#0357B6" stroke-linecap="round"/>
<line x1="189.034" y1="1.34905" x2="149.893" y2="41.4936" stroke="#0357B6"/>
<rect x="150.035" y="41.6448" width="39.1446" height="104.38" fill="#0357B6" stroke="#0357B6"/>
<rect x="150.035" y="146.024" width="37.1373" height="74.2711" transform="rotate(-90 150.035 146.024)" fill="#0357B6" stroke="#0357B6"/>
<path d="M221.795 108.889H262.943L243.874 127.456L224.304 146.023L220.29 126.954L221.795 108.889Z" fill="#0357B6" stroke="#0357B6"/>
<path d="M189.178 1.50195V42.6501L169.607 45.1592L150.037 41.1447L189.178 1.50195Z" fill="#0357B6"/>
<path d="M189.178 42.6501V1.50195L150.037 41.1447M189.178 42.6501C173.892 42.8461 165.322 40.9488 150.037 41.1447M189.178 42.6501L169.607 45.1592L150.037 41.1447" stroke="#0357B6"/>
<line x1="292.551" y1="413.485" x2="292.551" y2="308.105" stroke="#0357B6"/>
<line x1="253.41" y1="453.63" x2="253.41" y2="345.239" stroke="#0357B6"/>
<path d="M179.643 345.741H253.408" stroke="#0357B6" stroke-linecap="round"/>
<line x1="218.28" y1="308.609" x2="292.551" y2="308.609" stroke="#0357B6" stroke-linecap="square"/>
<line x1="179.653" y1="345.536" x2="217.739" y2="308.607" stroke="#0357B6" stroke-linecap="round"/>
<line x1="253.552" y1="453.281" x2="292.693" y2="413.136" stroke="#0357B6"/>
<rect x="292.551" y="412.985" width="39.1446" height="104.38" transform="rotate(-180 292.551 412.985)" fill="#0357B6" stroke="#0357B6"/>
<rect x="292.551" y="308.605" width="37.1373" height="74.2711" transform="rotate(90 292.551 308.605)" fill="#0357B6" stroke="#0357B6"/>
<path d="M220.791 345.741H179.643L198.711 327.174L218.282 308.607L222.296 327.676L220.791 345.741Z" fill="#0357B6" stroke="#0357B6"/>
<path d="M253.409 453.128V411.979L272.979 409.47L292.55 413.485L253.409 453.128Z" fill="#0357B6"/>
<path d="M253.409 411.979V453.128L292.55 413.485M253.409 411.979C268.694 411.783 277.264 413.681 292.55 413.485M253.409 411.979L272.979 409.47L292.55 413.485" stroke="#0357B6"/>
<line y1="-0.5" x2="105.38" y2="-0.5" transform="matrix(-1 0 0 1 403.449 297.066)" stroke="#0357B6"/>
<line y1="-0.5" x2="108.39" y2="-0.5" transform="matrix(-1 0 0 1 443.594 257.924)" stroke="#0357B6"/>
<path d="M335.705 183.657V257.423" stroke="#0357B6" stroke-linecap="round"/>
<line x1="0.5" y1="-0.5" x2="74.7711" y2="-0.5" transform="matrix(0 1 1 0 299.073 221.794)" stroke="#0357B6" stroke-linecap="square"/>
<line x1="0.5" y1="-0.5" x2="53.5496" y2="-0.5" transform="matrix(-0.696123 0.717923 0.717923 0.696123 336.207 183.657)" stroke="#0357B6" stroke-linecap="round"/>
<rect x="-0.5" y="-0.5" width="43" height="810" transform="matrix(0 -1 -1 0 1108 298)" fill="#0357B6" stroke="#0357B6"/>
<rect x="0.5" y="-0.5" width="37.1373" height="74.2711" transform="matrix(1 0 0 -1 298.069 296.066)" fill="#0357B6" stroke="#0357B6"/>
<path d="M335.705 224.805V183.657L317.138 202.726L298.571 222.296L317.64 226.311L335.705 224.805Z" fill="#0357B6" stroke="#0357B6"/>
<path d="M1153 255H1130.38H1107.76L1105 276.3L1109.41 298L1153 255Z" fill="#0357B6"/>
<path d="M1107.76 255C1107.54 272.072 1109.63 280.928 1109.41 298M1107.76 255L1105 276.3L1109.41 298M1107.76 255H1130.38H1153L1109.41 298" stroke="#0357B6"/>
<line y1="-0.5" x2="105.38" y2="-0.5" transform="matrix(-1 0 0 1 384.38 174.625)" stroke="#0357B6"/>
<line y1="-0.5" x2="108.39" y2="-0.5" transform="matrix(-1 0 0 1 424.525 135.484)" stroke="#0357B6"/>
<path d="M316.636 61.2166V134.982" stroke="#0357B6" stroke-linecap="round"/>
<line x1="0.5" y1="-0.5" x2="74.7711" y2="-0.5" transform="matrix(0 1 1 0 280.004 99.3538)" stroke="#0357B6" stroke-linecap="square"/>
<line x1="0.5" y1="-0.5" x2="53.5496" y2="-0.5" transform="matrix(-0.696123 0.717923 0.717923 0.696123 317.139 61.2166)" stroke="#0357B6" stroke-linecap="round"/>
<line y1="-0.5" x2="56.0678" y2="-0.5" transform="matrix(-0.716 0.6981 0.6981 0.716 424.525 135.484)" stroke="#0357B6"/>
<rect x="-0.5" y="-0.5" width="39.1446" height="104.38" transform="matrix(0 -1 -1 0 383.38 173.625)" fill="#0357B6" stroke="#0357B6"/>
<rect x="0.5" y="-0.5" width="37.1373" height="74.2711" transform="matrix(1 0 0 -1 279.001 173.625)" fill="#0357B6" stroke="#0357B6"/>
<path d="M316.636 102.365V61.2164L298.069 80.2851L279.502 99.8555L298.571 103.87L316.636 102.365Z" fill="#0357B6" stroke="#0357B6"/>
<path d="M424.023 134.982H382.875L380.366 154.552L384.381 174.123L424.023 134.982Z" fill="#0357B6"/>
<path d="M382.875 134.982H424.023L384.381 174.123M382.875 134.982C382.679 150.267 384.577 158.837 384.381 174.123M382.875 134.982L380.366 154.552L384.381 174.123" stroke="#0357B6"/>
<line y1="-0.5" x2="105.38" y2="-0.5" transform="matrix(1 0 0 -1 41.1445 151.542)" stroke="#0357B6"/>
<line y1="-0.5" x2="108.39" y2="-0.5" transform="matrix(1 0 0 -1 1 190.682)" stroke="#0357B6"/>
<path d="M108.889 264.95L108.889 191.185" stroke="#0357B6" stroke-linecap="round"/>
<line x1="0.5" y1="-0.5" x2="74.7711" y2="-0.5" transform="matrix(0 -1 -1 0 145.521 226.813)" stroke="#0357B6" stroke-linecap="square"/>
<line x1="0.5" y1="-0.5" x2="53.5496" y2="-0.5" transform="matrix(0.696123 -0.717923 -0.717923 -0.696123 108.387 264.95)" stroke="#0357B6" stroke-linecap="round"/>
<line y1="-0.5" x2="56.0678" y2="-0.5" transform="matrix(0.716 -0.6981 -0.6981 -0.716 1 190.682)" stroke="#0357B6"/>
<rect x="0.5" y="0.5" width="39.1446" height="104.38" transform="matrix(0 1 1 0 41.1445 151.542)" fill="#0357B6" stroke="#0357B6"/>
<rect x="-0.5" y="0.5" width="37.1373" height="74.2711" transform="matrix(-1 0 0 1 145.524 151.542)" fill="#0357B6" stroke="#0357B6"/>
<path d="M108.889 223.802L108.889 264.95L127.456 245.882L146.022 226.311L126.954 222.297L108.889 223.802Z" fill="#0357B6" stroke="#0357B6"/>
<path d="M1.50146 191.185H42.6497L45.1587 171.614L41.1442 152.044L1.50146 191.185Z" fill="#0357B6"/>
<path d="M42.6497 191.185H1.50146L41.1442 152.044M42.6497 191.185C42.8456 175.899 40.9483 167.329 41.1442 152.044M42.6497 191.185L45.1587 171.614L41.1442 152.044" stroke="#0357B6"/>
<line y1="-0.5" x2="105.38" y2="-0.5" transform="matrix(1 0 0 -1 61.2168 271.976)" stroke="#0357B6"/>
<line y1="-0.5" x2="108.39" y2="-0.5" transform="matrix(1 0 0 -1 21.0723 311.116)" stroke="#0357B6"/>
<path d="M128.961 385.384V311.618" stroke="#0357B6" stroke-linecap="round"/>
<line x1="0.5" y1="-0.5" x2="74.7711" y2="-0.5" transform="matrix(0 -1 -1 0 165.593 347.247)" stroke="#0357B6" stroke-linecap="square"/>
<line x1="0.5" y1="-0.5" x2="53.5496" y2="-0.5" transform="matrix(0.696123 -0.717923 -0.717923 -0.696123 128.459 385.384)" stroke="#0357B6" stroke-linecap="round"/>
<line y1="-0.5" x2="56.0678" y2="-0.5" transform="matrix(0.716 -0.6981 -0.6981 -0.716 21.0723 311.116)" stroke="#0357B6"/>
<rect x="0.5" y="0.5" width="39.1446" height="104.38" transform="matrix(0 1 1 0 61.2168 271.976)" fill="#0357B6" stroke="#0357B6"/>
<rect x="-0.5" y="0.5" width="37.1373" height="74.2711" transform="matrix(-1 0 0 1 165.596 271.976)" fill="#0357B6" stroke="#0357B6"/>
<path d="M128.961 344.236V385.384L147.528 366.316L166.095 346.745L147.026 342.731L128.961 344.236Z" fill="#0357B6" stroke="#0357B6"/>
<path d="M21.5737 311.619H62.7219L65.231 292.048L61.2165 272.478L21.5737 311.619Z" fill="#0357B6"/>
<path d="M62.7219 311.619H21.5737L61.2165 272.478M62.7219 311.619C62.9179 296.333 61.0205 287.763 61.2165 272.478M62.7219 311.619L65.231 292.048L61.2165 272.478" stroke="#0357B6"/>
<circle cx="223.301" cy="227.315" r="67.244" fill="#0357B6" stroke="#0357B6"/>
</svg>
